<?xml version="1.0" standalone="no"?>
<!DOCTYPE svg PUBLIC "-//W3C//DTD SVG 20010904//EN"
 "http://www.w3.org/TR/2001/REC-SVG-20010904/DTD/svg10.dtd">
<svg version="1.0" xmlns="http://www.w3.org/2000/svg"
 width="355.000000pt" height="142.000000pt" viewBox="0 0 355.000000 142.000000"
 preserveAspectRatio="xMidYMid meet">

<g transform="translate(0.000000,142.000000) scale(0.100000,-0.100000)"
fill="#000000" stroke="none">
<path d="M1615 1209 c-90 -45 -135 -118 -135 -220 0 -79 23 -132 75 -178 52
-46 99 -64 166 -64 63 0 131 27 170 69 19 20 21 27 9 34 -10 6 -24 0 -47 -20
-138 -121 -361 -2 -340 181 11 90 70 156 160 180 89 24 190 -24 232 -109 31
-64 66 -71 46 -9 -17 50 -74 111 -126 136 -59 28 -154 28 -210 0z"/>
<path d="M552 528 c-38 -10 -52 -38 -52 -101 0 -37 5 -46 55 -92 45 -41 55
-56 55 -84 0 -45 -24 -35 -28 12 -3 36 -4 37 -44 37 l-41 0 6 -46 c7 -64 34
-89 96 -89 72 0 91 21 91 101 l0 63 -55 48 c-44 37 -55 53 -53 73 4 32 22 29
26 -5 3 -22 8 -25 44 -25 l41 0 -6 37 c-11 63 -63 91 -135 71z"/>
<path d="M990 527 c-51 -18 -60 -44 -60 -183 0 -107 2 -124 20 -147 27 -34 76
-43 123 -24 48 20 60 67 55 204 -3 94 -6 105 -28 127 -32 30 -66 37 -110 23z
m50 -178 c0 -100 -3 -130 -12 -127 -9 3 -14 38 -16 118 -3 117 0 140 18 140 6
0 10 -48 10 -131z"/>
<path d="M2010 533 c-90 -16 -92 -143 -4 -203 43 -31 62 -65 50 -96 -10 -27
-31 -9 -34 29 -3 35 -5 37 -38 37 -33 0 -34 -1 -34 -41 0 -54 13 -75 55 -89
96 -32 160 45 124 148 -6 19 -31 46 -60 68 -41 29 -50 41 -47 62 4 38 28 40
28 3 0 -29 2 -31 40 -31 39 0 40 1 40 35 0 36 -28 75 -54 75 -8 0 -20 2 -28 4
-7 2 -24 1 -38 -1z"/>
<path d="M2680 533 c-67 -20 -80 -49 -80 -177 0 -126 12 -164 57 -183 44 -18
88 -11 120 19 18 17 23 32 23 70 l0 48 -39 0 c-40 0 -40 0 -43 -42 -2 -23 -9
-43 -16 -46 -10 -3 -12 23 -10 122 2 73 7 127 13 129 6 1 11 -22 13 -50 l3
-53 40 0 39 0 0 58 c0 48 -4 62 -22 79 -24 21 -72 34 -98 26z"/>
<path d="M720 351 l0 -181 45 0 45 0 0 74 0 75 37 3 c50 4 66 33 59 112 -6 79
-19 90 -111 94 l-75 4 0 -181z m114 103 c11 -27 6 -61 -9 -74 -13 -11 -15 -6
-15 39 0 50 12 67 24 35z"/>
<path d="M1160 351 l0 -181 35 0 34 0 3 78 3 77 21 -75 c21 -75 21 -75 57 -78
l37 -3 0 180 0 181 -35 0 -35 0 -1 -77 0 -78 -23 75 c-23 74 -23 75 -60 78
l-36 3 0 -180z"/>
<path d="M1390 350 l0 -180 79 0 c112 0 111 -1 111 173 0 78 -4 147 -8 154
-13 20 -61 33 -123 33 l-59 0 0 -180z m105 0 c0 -82 -3 -114 -12 -117 -10 -4
-13 24 -13 117 0 93 3 121 13 118 9 -4 12 -36 12 -118z"/>
<path d="M1620 350 l0 -180 40 0 40 0 0 180 0 180 -40 0 -40 0 0 -180z"/>
<path d="M1746 388 c-9 -79 -20 -160 -23 -181 l-6 -37 47 0 c44 0 46 1 46 29
0 16 6 31 14 34 19 8 26 -1 26 -35 0 -26 3 -28 40 -28 25 0 40 5 40 13 0 6
-10 87 -22 180 l-22 167 -61 0 -62 0 -17 -142z m93 -50 c1 -29 -3 -38 -15 -38
-14 0 -15 7 -10 38 3 20 6 51 7 67 l1 30 8 -30 c4 -16 8 -47 9 -67z"/>
<path d="M2220 496 c0 -30 3 -35 28 -38 l27 -3 3 -142 3 -143 39 0 40 0 0 145
0 145 25 0 c22 0 25 4 25 35 l0 35 -95 0 -95 0 0 -34z"/>
<path d="M2430 350 l0 -180 75 0 75 0 0 35 c0 32 -2 35 -30 35 -28 0 -30 2
-30 40 0 36 3 40 25 40 22 0 25 4 25 35 0 31 -3 35 -25 35 -22 0 -25 4 -25 35
0 31 3 35 25 35 22 0 25 4 25 35 l0 35 -70 0 -70 0 0 -180z"/>
<path d="M2840 350 l0 -180 40 0 40 0 0 75 c0 60 3 75 15 75 12 0 15 -15 15
-75 l0 -75 40 0 40 0 0 180 0 180 -40 0 -40 0 0 -65 c0 -51 -3 -65 -15 -65
-12 0 -15 14 -15 65 l0 65 -40 0 -40 0 0 -180z"/>
</g>
</svg>
